<svg xmlns="http://www.w3.org/2000/svg" width="1400" height="620" viewBox="0 0 1400 620">
<defs><linearGradient id="bg2" x1="0" x2="1" y1="0" y2="1"><stop stop-color="#0a0d13"/><stop offset="1" stop-color="#101722"/></linearGradient></defs>
<rect width="1400" height="620" rx="28" fill="url(#bg2)"/>
<text x="60" y="68" fill="#f24861" font-family="monospace" font-size="17" font-weight="700">ADVERSARY INTELLIGENCE · DEFENSIVE VIEW</text>
<text x="60" y="112" fill="#eef2f7" font-family="Arial" font-size="34" font-weight="800">From actor context to defensive priorities</text>
<g font-family="Arial" font-size="16">
  <g transform="translate(90 205)"><circle r="58" fill="#21141a" stroke="#f24861" stroke-width="2"/><text x="-31" y="6" fill="#fff" font-weight="700">ACTOR</text></g>
  <g transform="translate(335 205)"><circle r="58" fill="#121c2a" stroke="#79b9ff" stroke-width="2"/><text x="-36" y="6" fill="#fff" font-weight="700">SECTOR</text></g>
  <g transform="translate(580 205)"><circle r="58" fill="#151f1a" stroke="#63d89a" stroke-width="2"/><text x="-36" y="6" fill="#fff" font-weight="700">REGION</text></g>
  <g transform="translate(825 205)"><circle r="58" fill="#211d13" stroke="#efbd67" stroke-width="2"/><text x="-49" y="6" fill="#fff" font-weight="700">MOTIVE</text></g>
  <g transform="translate(1070 205)"><circle r="58" fill="#19162a" stroke="#a997ff" stroke-width="2"/><text x="-44" y="6" fill="#fff" font-weight="700">DEFENSE</text></g>
  <g transform="translate(1300 205)"><circle r="58" fill="#102226" stroke="#67d8df" stroke-width="2"/><text x="-38" y="6" fill="#fff" font-weight="700">EVIDENCE</text></g>
</g>
<g stroke="#3b4657" stroke-width="2"><path d="M148 205H277"/><path d="M393 205H522"/><path d="M638 205H767"/><path d="M883 205H1012"/><path d="M1128 205H1242"/></g>
<g font-family="monospace" font-size="14">
  <rect x="65" y="355" width="260" height="150" rx="16" fill="#111822" stroke="#283447"/>
  <text x="88" y="387" fill="#f24861">IDENTITY + ALIASES</text><text x="88" y="420" fill="#97a3b2">ATT&amp;CK Group ID</text><text x="88" y="447" fill="#97a3b2">source language</text><text x="88" y="474" fill="#97a3b2">profile version</text>
  <rect x="365" y="355" width="300" height="150" rx="16" fill="#111822" stroke="#283447"/>
  <text x="390" y="387" fill="#79b9ff">TARGETING CONTEXT</text><text x="390" y="420" fill="#97a3b2">broad sectors</text><text x="390" y="447" fill="#97a3b2">regions of interest</text><text x="390" y="474" fill="#97a3b2">strategic motivation</text>
  <rect x="705" y="355" width="300" height="150" rx="16" fill="#111822" stroke="#283447"/>
  <text x="730" y="387" fill="#63d89a">DEFENSIVE PRIORITIES</text><text x="730" y="420" fill="#97a3b2">identity · endpoint</text><text x="730" y="447" fill="#97a3b2">network · cloud</text><text x="730" y="474" fill="#97a3b2">resilience · retest</text>
  <rect x="1045" y="355" width="290" height="150" rx="16" fill="#111822" stroke="#283447"/>
  <text x="1070" y="387" fill="#efbd67">PROVENANCE</text><text x="1070" y="420" fill="#97a3b2">MITRE ATT&amp;CK</text><text x="1070" y="447" fill="#97a3b2">CISA · MISP</text><text x="1070" y="474" fill="#97a3b2">vendor research</text>
</g>
<text x="60" y="570" fill="#667182" font-family="monospace" font-size="13">Aliases are context, not exact identity. Attribution claims retain source language and uncertainty.</text>
</svg>